# xmcd CD database file
#
# Track frame offsets:
#	150
#	19002
#	33180
#	54102
#	68190
#	84192
#	95450
#	114595
#	126807
#	141095
#	156872
#	170590
#	182760
#	199805
#	213482
#	228432
#	244337
#
# Disc length: 3400 seconds
#
# Revision: 0
# Processed by: cddbd v1.5.1PL0 Copyright (c) Steve Scherf et al.
# Submitted via: CDex 1.51
#
DISCID=e20d4611
DTITLE=chris rae - The Guitar
DYEAR=1999
DGENRE=Country
TTITLE0=Bright Eyes
TTITLE1=Just When I Needed You Most
TTITLE2=I'm Not In Love
TTITLE3=Theme From Mahogany
TTITLE4=If You Leave Me Now
TTITLE5=Moonshadow
TTITLE6=Your Song
TTITLE7=Ballade Pour Adeline
TTITLE8=Nights In White Satin
TTITLE9=If
TTITLE10=Let It Be Me
TTITLE11=The Shadow Of Your Smile
TTITLE12=Blue Bayou
TTITLE13=If I Fell
TTITLE14=I Started A Joke
TTITLE15=Lost Without Your Love
TTITLE16=This Melody
EXTD=YEAR: 1999
EXTT0=
EXTT1=
EXTT2=
EXTT3=
EXTT4=
EXTT5=
EXTT6=
EXTT7=
EXTT8=
EXTT9=
EXTT10=
EXTT11=
EXTT12=
EXTT13=
EXTT14=
EXTT15=
EXTT16=
PLAYORDER=
